<svg xmlns="http://www.w3.org/2000/svg" viewBox="0 0 256 256"><defs><style>.a,.f,.t,.u{fill:none;}.b{fill:#0078d7;}.b,.f,.o,.r,.s,.t,.u{stroke:#000;stroke-miterlimit:10;}.c,.p,.r{fill:#fff;}.d{fill:#0591d7;}.e{fill:#00a0d4;}.f,.o{stroke-width:2px;}.g{fill:#9e2eff;}.h{fill:#00d0bc;}.i{fill:#ffc900;}.j{fill:#f08;}.k{fill:#8c26e3;}.l{fill:#00bfab;}.m{fill:#e4ad00;}.n{fill:#e1006a;}.o{fill:#3c3c3c;}.p{font-size:8.78px;font-family:SimHei;}.q{fill:#e6e6e6;}.r{stroke-width:4px;}.t{stroke-width:5px;}.u{stroke-width:7px;}</style></defs><title>logo</title><rect class="a" width="256" height="256"/><rect class="b" x="3.54" y="106.21" width="178.09" height="100.18"/><path class="c" d="M3.54,139.08v67.31H181.63Z"/><polygon class="d" points="116.22 106.21 3.54 106.21 3.54 206.39 181.63 206.39 116.22 106.21"/><path class="e" d="M3.54,150v56.35H181.63Z"/><rect class="f" x="3.54" y="106.21" width="178.09" height="100.18"/><rect class="g" x="9.2" y="111.14" width="16.55" height="16.55"/><rect class="h" x="9.2" y="135.22" width="16.55" height="16.55"/><rect class="i" x="9.2" y="159.3" width="16.55" height="16.55"/><rect class="j" x="33.4" y="111.14" width="16.55" height="16.55"/><path class="k" d="M9.2,111.14l0,16.54H25.75Z"/><path class="l" d="M9.2,135.2l0,16.56H25.75Z"/><path class="m" d="M9.18,159.26l0,16.58H25.75Z"/><path class="n" d="M33.39,111.12l0,16.56H49.94Z"/><rect class="o" x="3.54" y="194.89" width="178.09" height="11.5"/><rect class="c" x="5.51" y="196.95" width="7.39" height="7.39"/><text class="p" transform="translate(157.23 204.33)">11:45</text><path class="q" d="M5.51,196.79v7.55H12.9Z"/><circle class="r" cx="180.65" cy="106.21" r="71.18"/><circle class="s" cx="180.65" cy="106.21" r="5"/><line class="t" x1="181.28" y1="106.62" x2="181.28" y2="46.56"/><line class="u" x1="180.65" y1="106.29" x2="148.44" y2="124.88"/></svg>