<svg xmlns="http://www.w3.org/2000/svg" viewBox="0 0 256 256"><defs><style>.a,.f,.t,.u,.v{fill:none;}.b{fill:#0078d7;}.b,.f,.o,.r,.s,.t,.u,.v{stroke:#000;stroke-miterlimit:10;}.c,.p,.r{fill:#fff;}.d{fill:#0591d7;}.e{fill:#00a0d4;}.f,.o{stroke-width:2px;}.g{fill:#9e2eff;}.h{fill:#00d0bc;}.i{fill:#ffc900;}.j{fill:#f08;}.k{fill:#8c26e3;}.l{fill:#00bfab;}.m{fill:#e4ad00;}.n{fill:#e1006a;}.o{fill:#3c3c3c;}.p{font-size:8.78px;font-family:SimHei;}.q{fill:#e6e6e6;}.r{stroke-width:5px;}.t{stroke-width:7px;}.u{stroke-width:10px;}.v{stroke-width:3px;}</style></defs><title>logo</title><rect class="a" width="256" height="256"/><rect class="b" x="3.5" y="106.5" width="178" height="100"/><path class="c" d="M4,138.69V206H182.09Z"/><polygon class="d" points="96.96 106 4 106 4 206 181.78 206 96.96 106"/><path class="e" d="M4,163.68V206H182.09Z"/><rect class="f" x="4" y="106" width="178" height="100"/><rect class="g" x="9" y="111" width="17" height="17"/><rect class="h" x="9" y="135" width="17" height="17"/><rect class="i" x="9" y="159" width="17" height="17"/><rect class="j" x="33" y="111" width="17" height="17"/><path class="k" d="M9.2,111.45l0,16.55H25.75Z"/><path class="l" d="M9.2,135.44l0,16.56H25.75Z"/><path class="m" d="M9.18,159.42,9.2,176H25.75Q17.47,167.71,9.18,159.42Z"/><path class="n" d="M33.39,111.44l0,16.56H49.94Z"/><rect class="o" x="4" y="195" width="178" height="11"/><rect class="c" x="6" y="197" width="7" height="7"/><text class="p" transform="translate(157.23 204.33)">11:45</text><path class="q" d="M5.51,196.46V204H12.9Z"/><circle class="r" cx="181.5" cy="108.5" r="71"/><circle class="s" cx="181.5" cy="108.5" r="10"/><path class="t" d="M181.63,108.79l2.1-60Z"/><path class="u" d="M143,131.12l38.64-22.31Z"/><path class="v" d="M181.29,108.81l56.61,32.68Z"/></svg>